<svg xmlns="http://www.w3.org/2000/svg" viewBox="0 0 200 40" fill="none">
  <!--
    Hybetech Logo - Primary Wordmark

    Design Notes:
    - Based on Plus Jakarta Sans geometric proportions
    - Custom "H" with tech-inspired crossbar accent
    - Subtle optical adjustments for perfect balance
    - The crossbar extends slightly with a node endpoint,
      suggesting connectivity and AI/tech without being literal
  -->

  <!-- H with extended crossbar accent -->
  <path d="M0 8h5.5v10.5h11V8h5.5v24h-5.5V23h-11v9H0V8z" fill="currentColor"/>

  <!-- Accent node on H crossbar -->
  <circle cx="24" cy="18.5" r="2" fill="#3b82f6"/>

  <!-- y -->
  <path d="M28 8h5.8l5.2 12.5L44.2 8H50l-8.5 19.5c-1.8 4.2-4 5.8-7.5 5.8-1.5 0-2.8-.2-3.8-.6l1-4.2c.7.2 1.5.4 2.3.4 1.5 0 2.3-.6 3-2.2l.4-1L28 8z" fill="currentColor"/>

  <!-- b -->
  <path d="M54 0h5.5v11.5c1.5-2 3.8-3.2 6.5-3.2 5.5 0 9.5 4.3 9.5 11s-4 11-9.5 11c-2.7 0-5-1.2-6.5-3.2V32H54V0zm10.5 13.2c-3 0-5.2 2.3-5.2 6.8s2.2 6.8 5.2 6.8c3 0 5-2.3 5-6.8s-2-6.8-5-6.8z" fill="currentColor"/>

  <!-- e -->
  <path d="M79 20c0-6.7 4.8-11.7 11-11.7 6 0 10.5 4.5 10.5 11.2 0 .8-.1 1.7-.2 2.5H84.5c.5 3.2 2.8 5 5.8 5 2.2 0 4-.8 5.5-2.5l3.5 3c-2 2.8-5.3 4.5-9.3 4.5-6.5 0-11-4.8-11-12zm5.5-2.5h10.3c-.3-3-2.3-4.8-5-4.8-2.8 0-4.8 1.8-5.3 4.8z" fill="currentColor"/>

  <!-- t -->
  <path d="M104 3h5.5v5.3h5v4.5h-5v10.7c0 2 .8 2.8 2.5 2.8.8 0 1.7-.1 2.5-.4v4.5c-1 .4-2.5.6-4 .6-4.5 0-6.5-2.2-6.5-6.8V12.8h-3.5V8.3h3.5V3z" fill="currentColor"/>

  <!-- e -->
  <path d="M118 20c0-6.7 4.8-11.7 11-11.7 6 0 10.5 4.5 10.5 11.2 0 .8-.1 1.7-.2 2.5h-15.8c.5 3.2 2.8 5 5.8 5 2.2 0 4-.8 5.5-2.5l3.5 3c-2 2.8-5.3 4.5-9.3 4.5-6.5 0-11-4.8-11-12zm5.5-2.5h10.3c-.3-3-2.3-4.8-5-4.8-2.8 0-4.8 1.8-5.3 4.8z" fill="currentColor"/>

  <!-- c -->
  <path d="M143 20c0-6.8 5-12 12-12 4 0 7.3 1.8 9.3 5l-4.3 2.5c-1.2-1.8-3-2.8-5-2.8-3.7 0-6.3 2.8-6.3 7.3s2.6 7.3 6.3 7.3c2 0 3.8-1 5-2.8l4.3 2.5c-2 3.2-5.3 5-9.3 5-7 0-12-5.2-12-12z" fill="currentColor"/>

  <!-- h -->
  <path d="M167 0h5.5v11.5c1.5-2 4-3.2 6.8-3.2 5 0 8 3.2 8 8.7V32h-5.5V18.2c0-3-1.5-4.7-4.2-4.7-2.8 0-5 2-5 5.5v13h-5.6V0z" fill="currentColor"/>
</svg>
